<?xml version="1.0" encoding="UTF-8"?>
<svg
  xmlns="http://www.w3.org/2000/svg"
  viewBox="180.9 57.6 480 480"
  width="64"
  height="64"
>
  <rect x="180.9" y="57.6" width="480" height="480" rx="78.5" ry="78.5" fill="#e60012"/>

  <path
    fill="#fff"
    d="M453.5,236c3.9.9,7.6,3.5,10.9,5.6,27.7,16.9,43.7,37.2,23.9,68.7-3,4.7-11.9,11.6-7.3,16.7,5,2.5,14.7,13.4,19.2,14.8,6.2,1.9,13.3-9.2,16.5-14.1,29.8-45.9,6.5-84.1-29.2-116.2-11.9-10.7-28.8-19.2-32.6-36.4-.9-4.2.3-8.9-2.4-12.6h-23c-.4.3-2,2.8-2,3v165.5c-39.3-21.7-104,2.1-114.5,47-9.8,41.7,30.4,63.9,67,61,29.1-2.3,73.5-28.6,73.5-61.5v-141.5Z"
  />
</svg>
